<svg width="169" height="157" viewBox="0 0 169 157" fill="none" xmlns="http://www.w3.org/2000/svg">
<mask id="path-1-inside-1" fill="white">
<path fill-rule="evenodd" clip-rule="evenodd" d="M107.418 54.5514C105.309 54.7 103.774 53.853 102.836 52.4679C101.908 51.0967 101.454 49.0155 101.943 46.4985C103.719 45.8216 105.204 45.644 106.393 45.7534C108.446 45.9423 109.833 47 110.598 48.2948C111.392 49.6405 111.495 51.1964 111.006 52.3614C110.563 53.4168 109.534 54.4023 107.418 54.5514ZM99.5245 54.711C98.3886 53.0339 97.7899 50.977 97.7469 48.7552C97.6256 48.8379 97.5035 48.9226 97.3804 49.0093C93.3314 51.8632 91.1668 55.4076 90.219 59.1388L93.0742 60.0021L105.761 63.8382C111.941 60.5368 119.326 59.5823 126.499 61.751C141.036 66.1468 149.193 81.7098 144.718 96.5119C144.392 97.5885 144.009 98.6314 143.572 99.6382L139.065 135.936C137.858 145.651 129.005 152.548 119.291 151.342C109.576 150.135 102.679 141.282 103.885 131.568L105.429 119.137C103.31 119.797 100.977 119.851 98.6925 119.16C92.7735 117.37 89.3582 111.239 90.8787 105.306L80.3393 102.119L74.5961 100.382L64.0567 97.1955C62.035 102.977 55.7945 106.189 49.8754 104.399C47.4834 103.676 45.5003 102.244 44.0866 100.402L38.2906 111.992C33.8731 120.825 23.1313 124.405 14.298 119.987C5.46475 115.57 1.88503 104.828 6.30249 95.9949L22.1861 64.2337C22.3829 62.7403 22.7031 61.2432 23.1532 59.7543C27.629 44.9522 43.2567 36.581 58.0588 41.0568C65.3615 43.2649 71.0989 48.1874 74.5006 54.386L86.3891 57.9808C87.5641 53.5028 90.1985 49.1776 95.076 45.7398C96.2771 44.8932 97.445 44.19 98.5761 43.6212C100.813 36.9471 107.632 29.9322 120.365 25.795L121.601 29.5992C111.928 32.7422 106.437 37.4633 103.783 41.8762C104.822 41.7154 105.815 41.6833 106.759 41.7702C110.137 42.081 112.648 43.8992 114.042 46.2609C115.407 48.5715 115.725 51.4525 114.695 53.909C113.618 56.4751 111.187 58.2957 107.699 58.5415C104.204 58.7878 101.284 57.3083 99.5245 54.711Z"/>
</mask>
<path fill-rule="evenodd" clip-rule="evenodd" d="M107.418 54.5514C105.309 54.7 103.774 53.853 102.836 52.4679C101.908 51.0967 101.454 49.0155 101.943 46.4985C103.719 45.8216 105.204 45.644 106.393 45.7534C108.446 45.9423 109.833 47 110.598 48.2948C111.392 49.6405 111.495 51.1964 111.006 52.3614C110.563 53.4168 109.534 54.4023 107.418 54.5514ZM99.5245 54.711C98.3886 53.0339 97.7899 50.977 97.7469 48.7552C97.6256 48.8379 97.5035 48.9226 97.3804 49.0093C93.3314 51.8632 91.1668 55.4076 90.219 59.1388L93.0742 60.0021L105.761 63.8382C111.941 60.5368 119.326 59.5823 126.499 61.751C141.036 66.1468 149.193 81.7098 144.718 96.5119C144.392 97.5885 144.009 98.6314 143.572 99.6382L139.065 135.936C137.858 145.651 129.005 152.548 119.291 151.342C109.576 150.135 102.679 141.282 103.885 131.568L105.429 119.137C103.31 119.797 100.977 119.851 98.6925 119.16C92.7735 117.37 89.3582 111.239 90.8787 105.306L80.3393 102.119L74.5961 100.382L64.0567 97.1955C62.035 102.977 55.7945 106.189 49.8754 104.399C47.4834 103.676 45.5003 102.244 44.0866 100.402L38.2906 111.992C33.8731 120.825 23.1313 124.405 14.298 119.987C5.46475 115.57 1.88503 104.828 6.30249 95.9949L22.1861 64.2337C22.3829 62.7403 22.7031 61.2432 23.1532 59.7543C27.629 44.9522 43.2567 36.581 58.0588 41.0568C65.3615 43.2649 71.0989 48.1874 74.5006 54.386L86.3891 57.9808C87.5641 53.5028 90.1985 49.1776 95.076 45.7398C96.2771 44.8932 97.445 44.19 98.5761 43.6212C100.813 36.9471 107.632 29.9322 120.365 25.795L121.601 29.5992C111.928 32.7422 106.437 37.4633 103.783 41.8762C104.822 41.7154 105.815 41.6833 106.759 41.7702C110.137 42.081 112.648 43.8992 114.042 46.2609C115.407 48.5715 115.725 51.4525 114.695 53.909C113.618 56.4751 111.187 58.2957 107.699 58.5415C104.204 58.7878 101.284 57.3083 99.5245 54.711Z" fill="#ED6E7E"/>
<path d="M102.836 52.4679L106.148 50.2248L106.148 50.2248L102.836 52.4679ZM107.418 54.5514L107.699 58.5415L107.699 58.5415L107.418 54.5514ZM101.943 46.4985L100.518 42.7608L98.4405 43.5528L98.0162 45.7354L101.943 46.4985ZM106.393 45.7534L106.759 41.7702L106.759 41.7702L106.393 45.7534ZM110.598 48.2948L114.042 46.2609L114.042 46.2609L110.598 48.2948ZM111.006 52.3614L107.318 50.8138L107.318 50.8138L111.006 52.3614ZM97.7469 48.7552L101.746 48.6778L101.603 41.2851L95.4937 45.4502L97.7469 48.7552ZM99.5245 54.711L96.2126 56.9541L96.2126 56.9541L99.5245 54.711ZM97.3804 49.0093L99.6849 52.2788L99.6849 52.2788L97.3804 49.0093ZM90.219 59.1388L86.3421 58.1541L85.4006 61.8607L89.0613 62.9676L90.219 59.1388ZM105.761 63.8382L104.603 67.667L106.187 68.1458L107.646 67.3664L105.761 63.8382ZM143.572 99.6382L139.902 98.0464L139.673 98.5742L139.602 99.1453L143.572 99.6382ZM139.065 135.936L135.095 135.443L135.095 135.443L139.065 135.936ZM119.291 151.342L118.798 155.311L118.798 155.311L119.291 151.342ZM103.885 131.568L99.9158 131.075L99.9158 131.075L103.885 131.568ZM105.429 119.137L109.398 119.63L110.163 113.475L104.24 115.318L105.429 119.137ZM90.8787 105.306L94.7535 106.299L95.7049 102.586L92.0364 101.477L90.8787 105.306ZM64.0567 97.1955L65.2144 93.3667L61.5459 92.2575L60.2809 95.8752L64.0567 97.1955ZM44.0866 100.402L47.2596 97.9664L43.3679 92.8963L40.509 98.6129L44.0866 100.402ZM38.2906 111.992L34.713 110.203L34.713 110.203L38.2906 111.992ZM14.298 119.987L12.5089 123.565L12.5089 123.565L14.298 119.987ZM6.30249 95.9949L9.88006 97.7841L6.30249 95.9949ZM22.1861 64.2337L25.7637 66.0228L26.0641 65.4221L26.1518 64.7562L22.1861 64.2337ZM74.5006 54.386L70.994 56.3104L71.7797 57.7421L73.3429 58.2148L74.5006 54.386ZM86.3891 57.9808L85.2314 61.8096L89.2047 63.011L90.2582 58.9959L86.3891 57.9808ZM95.076 45.7398L97.3804 49.0093L97.3805 49.0093L95.076 45.7398ZM98.5761 43.6212L100.373 47.1949L101.845 46.4547L102.369 44.8925L98.5761 43.6212ZM120.365 25.795L124.169 24.5589L122.933 20.7546L119.129 21.9908L120.365 25.795ZM121.601 29.5992L122.837 33.4034L126.641 32.1673L125.405 28.3631L121.601 29.5992ZM103.783 41.8762L100.355 39.8143L95.9501 47.1368L104.395 45.8291L103.783 41.8762ZM106.759 41.7702L106.393 45.7534L106.393 45.7534L106.759 41.7702ZM114.042 46.2609L117.486 44.227L117.486 44.227L114.042 46.2609ZM114.695 53.909L118.383 55.4565L118.383 55.4565L114.695 53.909ZM107.699 58.5415L107.418 54.5514L107.418 54.5514L107.699 58.5415ZM99.5245 54.711C101.283 57.3069 104.202 58.7879 107.699 58.5415L107.137 50.5613C106.696 50.5924 106.488 50.5119 106.416 50.4775C106.344 50.4428 106.254 50.3808 106.148 50.2248L99.5245 54.711ZM98.0162 45.7354C97.3653 49.0846 97.8885 52.2954 99.5245 54.711L106.148 50.2248C105.927 49.8979 105.542 48.9464 105.869 47.2617L98.0162 45.7354ZM106.759 41.7702C104.868 41.5962 102.769 41.903 100.518 42.7608L103.367 50.2362C104.669 49.7402 105.54 49.6918 106.026 49.7365L106.759 41.7702ZM114.042 46.2609C112.647 43.8979 110.136 42.0808 106.759 41.7702L106.026 49.7365C106.441 49.7747 106.679 49.8862 106.814 49.9729C106.956 50.0647 107.068 50.1843 107.153 50.3287L114.042 46.2609ZM114.695 53.909C115.723 51.4572 115.409 48.5763 114.042 46.2609L107.153 50.3286C107.248 50.4883 107.289 50.6422 107.3 50.7579C107.311 50.8827 107.282 50.8984 107.318 50.8138L114.695 53.909ZM107.699 58.5415C111.196 58.295 113.621 56.4673 114.695 53.909L107.318 50.8138C107.335 50.7716 107.366 50.7132 107.416 50.65C107.468 50.5845 107.525 50.5337 107.573 50.5003C107.621 50.4674 107.632 50.4714 107.577 50.4893C107.519 50.5081 107.381 50.5441 107.137 50.5613L107.699 58.5415ZM93.7477 48.8326C93.8035 51.7184 94.5856 54.5519 96.2126 56.9541L102.836 52.4679C102.192 51.5159 101.776 50.2357 101.746 48.6778L93.7477 48.8326ZM99.6849 52.2788C99.7911 52.2039 99.8962 52.1311 100 52.0602L95.4937 45.4502C95.3551 45.5447 95.2159 45.6412 95.076 45.7398L99.6849 52.2788ZM94.0959 60.1235C94.8147 57.2937 96.4353 54.5692 99.6849 52.2788L95.076 45.7398C90.2276 49.1571 87.5188 53.5216 86.3421 58.1541L94.0959 60.1235ZM89.0613 62.9676L91.9165 63.8309L94.2319 56.1733L91.3768 55.31L89.0613 62.9676ZM91.9165 63.8309L104.603 67.667L106.919 60.0094L94.2319 56.1733L91.9165 63.8309ZM107.646 67.3664C112.939 64.5387 119.233 63.7329 125.341 65.5798L127.656 57.9222C119.42 55.4316 110.943 56.535 103.876 60.3101L107.646 67.3664ZM125.341 65.5798C137.699 69.3166 144.745 82.6013 140.889 95.3542L148.546 97.6696C153.642 80.8182 144.373 62.977 127.656 57.9222L125.341 65.5798ZM140.889 95.3542C140.608 96.2828 140.278 97.1808 139.902 98.0464L147.242 101.23C147.74 100.082 148.176 98.8941 148.546 97.6696L140.889 95.3542ZM139.602 99.1453L135.095 135.443L143.034 136.429L147.541 100.131L139.602 99.1453ZM135.095 135.443C134.161 142.966 127.306 148.306 119.784 147.372L118.798 155.311C130.705 156.79 141.556 148.336 143.034 136.429L135.095 135.443ZM119.784 147.372C112.262 146.438 106.921 139.583 107.855 132.061L99.9158 131.075C98.4373 142.982 106.891 153.833 118.798 155.311L119.784 147.372ZM107.855 132.061L109.398 119.63L101.459 118.644L99.9158 131.075L107.855 132.061ZM104.24 115.318C102.86 115.747 101.346 115.784 99.8503 115.331L97.5348 122.989C100.609 123.918 103.759 123.846 106.618 122.956L104.24 115.318ZM99.8503 115.331C95.991 114.165 93.7626 110.165 94.7535 106.299L87.0039 104.313C84.9538 112.312 89.556 120.576 97.5348 122.989L99.8503 115.331ZM92.0364 101.477L81.497 98.2901L79.1816 105.948L89.721 109.135L92.0364 101.477ZM81.497 98.2901L75.7538 96.5535L73.4384 104.211L79.1816 105.948L81.497 98.2901ZM75.7538 96.5535L65.2144 93.3667L62.899 101.024L73.4384 104.211L75.7538 96.5535ZM60.2809 95.8752C58.9634 99.643 54.8924 101.737 51.0331 100.571L48.7177 108.228C56.6965 110.641 65.1066 106.311 67.8325 98.5158L60.2809 95.8752ZM51.0331 100.571C49.4683 100.097 48.1808 99.1665 47.2596 97.9664L40.9136 102.838C42.8199 105.321 45.4985 107.255 48.7177 108.228L51.0331 100.571ZM40.509 98.6129L34.713 110.203L41.8681 113.781L47.6642 102.191L40.509 98.6129ZM34.713 110.203C31.2836 117.06 22.9446 119.839 16.0871 116.41L12.5089 123.565C23.318 128.971 36.4626 124.59 41.8681 113.781L34.713 110.203ZM16.0871 116.41C9.22971 112.981 6.45071 104.641 9.88006 97.7841L2.72491 94.2058C-2.68065 105.015 1.69979 118.159 12.5089 123.565L16.0871 116.41ZM9.88006 97.7841L25.7637 66.0228L18.6085 62.4446L2.72491 94.2058L9.88006 97.7841ZM26.1518 64.7562C26.3203 63.4771 26.5949 62.1924 26.982 60.912L19.3244 58.5966C18.8112 60.2939 18.4454 62.0035 18.2204 63.7111L26.1518 64.7562ZM26.982 60.912C30.8184 48.2245 44.2136 41.0492 56.9011 44.8856L59.2166 37.228C42.2999 32.1129 24.4396 41.6799 19.3244 58.5966L26.982 60.912ZM56.9011 44.8856C63.1619 46.7786 68.0755 50.9923 70.994 56.3104L78.0073 52.4616C74.1224 45.3825 67.5612 39.7511 59.2166 37.228L56.9011 44.8856ZM73.3429 58.2148L85.2314 61.8096L87.5469 54.152L75.6583 50.5572L73.3429 58.2148ZM92.7716 42.4703C87.0899 46.4749 83.9239 51.6152 82.5201 56.9656L90.2582 58.9959C91.2042 55.3903 93.3071 51.8803 97.3804 49.0093L92.7716 42.4703ZM96.7793 40.0475C95.4539 40.7139 94.1171 41.5219 92.7715 42.4703L97.3805 49.0093C98.4371 48.2645 99.436 47.666 100.373 47.1949L96.7793 40.0475ZM119.129 21.9908C105.588 26.3906 97.5401 34.1266 94.7836 42.3499L102.369 44.8925C104.087 39.7676 109.676 33.4739 121.601 29.5992L119.129 21.9908ZM125.405 28.3631L124.169 24.5589L116.561 27.0311L117.797 30.8353L125.405 28.3631ZM107.21 43.9382C109.253 40.5427 113.843 36.3259 122.837 33.4034L120.365 25.795C110.013 29.1585 103.622 34.384 100.355 39.8143L107.21 43.9382ZM107.126 37.787C105.835 37.6683 104.512 37.7155 103.171 37.9233L104.395 45.8291C105.131 45.7152 105.795 45.6983 106.393 45.7534L107.126 37.787ZM117.486 44.227C115.462 40.7992 111.829 38.2197 107.126 37.787L106.393 45.7534C108.446 45.9422 109.833 46.9992 110.598 48.2948L117.486 44.227ZM118.383 55.4565C119.957 51.7062 119.419 47.5 117.486 44.227L110.598 48.2948C111.394 49.6431 111.494 51.1989 111.006 52.3614L118.383 55.4565ZM107.98 62.5316C112.837 62.1894 116.671 59.5372 118.383 55.4565L111.006 52.3614C110.565 53.413 109.538 54.402 107.418 54.5514L107.98 62.5316ZM96.2126 56.9541C98.7933 60.7644 103.1 62.8755 107.98 62.5316L107.418 54.5514C105.308 54.7 103.774 53.8522 102.836 52.4679L96.2126 56.9541Z" fill="black" mask="url(#path-1-inside-1)"/>
<circle cx="53.1594" cy="91.8111" r="6" transform="rotate(16.8238 53.1594 91.8111)" fill="white"/>
<circle cx="102.934" cy="106.861" r="6" transform="rotate(16.8238 102.934 106.861)" fill="white"/>
</svg>
