<svg width="158" height="158" viewBox="0 0 158 158" fill="none" xmlns="http://www.w3.org/2000/svg">
<path fill-rule="evenodd" clip-rule="evenodd" d="M67.4458 14.7052C92.1097 10.2255 116.65 23.4699 132.055 46.6737L128.72 47.2795C137.877 58.701 144.643 73.208 147.62 89.5964C148.186 92.7141 148.6 95.8162 148.868 98.8917C149.099 99.6933 149.291 100.512 149.443 101.345C152.453 117.919 138.154 134.395 117.505 138.145L106.604 78.1273C117.572 76.1352 128.125 78.134 136.061 82.9299C132.757 69.6748 126.517 58.0898 118.459 49.1433L115.024 49.7672C103.405 35.8977 86.984 28.4346 70.4836 31.4316C53.9832 34.4285 41.2359 47.1893 35.2362 64.2589L31.8014 64.8828C27.3662 76.1883 25.606 89.3564 27.2455 103.053C33.0017 95.917 42.078 90.458 52.8977 88.4928L63.7988 148.511C43.1498 152.261 23.9702 141.866 20.9599 125.293C20.7099 123.916 20.5793 122.54 20.5618 121.172C19.8464 118.508 19.233 115.785 18.7285 113.007C15.7518 96.6184 16.9838 80.6589 21.5397 66.7466L18.205 67.3523C24.4666 40.2131 42.782 19.1849 67.4458 14.7052Z" fill="#959ACC"/>
<path d="M132.055 46.6737L132.413 48.6415L135.402 48.0986L133.722 45.5675L132.055 46.6737ZM128.72 47.2795L128.363 45.3117L125.06 45.9116L127.16 48.5305L128.72 47.2795ZM148.868 98.8917L146.875 99.0652L146.892 99.2593L146.946 99.4466L148.868 98.8917ZM117.505 138.145L115.537 138.503L115.895 140.471L117.863 140.113L117.505 138.145ZM106.604 78.1273L106.247 76.1595L104.279 76.5169L104.636 78.4847L106.604 78.1273ZM136.061 82.9299L135.027 84.6416L139.174 87.1478L138.002 82.4461L136.061 82.9299ZM118.459 49.1433L119.945 47.8048L119.198 46.9762L118.101 47.1755L118.459 49.1433ZM115.024 49.7672L113.491 51.0515L114.237 51.9427L115.381 51.735L115.024 49.7672ZM35.2362 64.2589L35.5936 66.2267L36.7375 66.019L37.1231 64.9221L35.2362 64.2589ZM31.8014 64.8828L31.444 62.915L30.3468 63.1143L29.9396 64.1524L31.8014 64.8828ZM27.2455 103.053L25.2597 103.291L25.8236 108.002L28.8022 104.309L27.2455 103.053ZM52.8977 88.4928L54.8655 88.1354L54.5081 86.1676L52.5403 86.525L52.8977 88.4928ZM63.7988 148.511L64.1562 150.479L66.124 150.121L65.7666 148.153L63.7988 148.511ZM20.5618 121.172L22.5616 121.147L22.5584 120.896L22.4934 120.653L20.5618 121.172ZM21.5397 66.7466L23.4404 67.369L24.4851 64.1789L21.1823 64.7788L21.5397 66.7466ZM18.205 67.3523L16.2562 66.9027L15.5732 69.863L18.5625 69.3201L18.205 67.3523ZM133.722 45.5675C117.998 21.8848 92.7375 8.07876 67.0884 12.7374L67.8032 16.673C91.4818 12.3723 115.302 25.0551 130.389 47.7799L133.722 45.5675ZM129.078 49.2473L132.413 48.6415L131.698 44.7059L128.363 45.3117L129.078 49.2473ZM149.588 89.239C146.553 72.533 139.652 57.7168 130.281 46.0284L127.16 48.5305C136.103 59.6852 142.733 73.8829 145.652 89.9538L149.588 89.239ZM150.86 98.7183C150.587 95.5811 150.165 92.4176 149.588 89.239L145.652 89.9538C146.207 93.0106 146.613 96.0514 146.875 99.0652L150.86 98.7183ZM151.411 100.988C151.247 100.087 151.039 99.2033 150.789 98.3369L146.946 99.4466C147.159 100.183 147.336 100.936 147.475 101.703L151.411 100.988ZM117.863 140.113C139.172 136.243 154.688 119.03 151.411 100.988L147.475 101.703C150.219 116.808 137.136 132.547 117.148 136.177L117.863 140.113ZM104.636 78.4847L115.537 138.503L119.473 137.788L108.572 77.7699L104.636 78.4847ZM137.096 81.2181C128.71 76.1505 117.656 74.0873 106.247 76.1595L106.962 80.0951C117.489 78.1831 127.541 80.1176 135.027 84.6416L137.096 81.2181ZM116.972 50.4818C124.802 59.175 130.892 70.4632 134.121 83.4137L138.002 82.4461C134.622 68.8864 128.231 57.0046 119.945 47.8048L116.972 50.4818ZM115.381 51.735L118.816 51.1111L118.101 47.1755L114.666 47.7994L115.381 51.735ZM70.841 33.3994C86.4796 30.559 102.222 37.6009 113.491 51.0515L116.557 48.4828C104.587 34.1945 87.4885 26.3103 70.1262 29.4638L70.841 33.3994ZM37.1231 64.9221C42.9416 48.368 55.2025 36.2398 70.841 33.3994L70.1262 29.4638C52.7639 32.6173 39.5302 46.0107 33.3494 63.5957L37.1231 64.9221ZM32.1588 66.8506L35.5936 66.2267L34.8788 62.2911L31.444 62.915L32.1588 66.8506ZM29.2314 102.816C27.6295 89.4331 29.3536 76.5987 33.6633 65.6132L29.9396 64.1524C25.3788 75.778 23.5826 89.2798 25.2597 103.291L29.2314 102.816ZM52.5403 86.525C41.2852 88.5693 31.7691 94.2596 25.6888 101.798L28.8022 104.309C34.2344 97.5744 42.8709 92.3467 53.2551 90.4606L52.5403 86.525ZM65.7666 148.153L54.8655 88.1354L50.9299 88.8502L61.831 148.868L65.7666 148.153ZM18.9921 125.65C22.2691 143.692 42.8463 154.349 64.1562 150.479L63.4414 146.543C43.4532 150.173 25.6712 140.04 22.9277 124.935L18.9921 125.65ZM18.562 121.198C18.5809 122.676 18.722 124.163 18.9921 125.65L22.9277 124.935C22.6978 123.669 22.5777 122.404 22.5616 121.147L18.562 121.198ZM16.7607 113.364C17.275 116.196 17.9005 118.974 18.6303 121.691L22.4934 120.653C21.7922 118.043 21.1909 115.373 20.6963 112.649L16.7607 113.364ZM19.6391 66.1242C14.9767 80.3615 13.7264 96.6583 16.7607 113.364L20.6963 112.649C17.7773 96.5786 18.9909 80.9562 23.4404 67.369L19.6391 66.1242ZM18.5625 69.3201L21.8972 68.7144L21.1823 64.7788L17.8476 65.3845L18.5625 69.3201ZM67.0884 12.7374C41.4393 17.396 22.647 39.2034 16.2562 66.9027L20.1538 67.8019C26.2862 41.2229 44.1246 20.9737 67.8032 16.673L67.0884 12.7374Z" fill="black"/>
</svg>
