<svg width="74" height="151" viewBox="0 0 74 151" fill="none" xmlns="http://www.w3.org/2000/svg">
<mask id="path-1-inside-1" fill="white">
<path d="M39.8531 28.3261L63.4582 36.5602L33.486 122.483L11.8025 146.692L9.88093 114.249L39.8531 28.3261Z"/>
</mask>
<path d="M39.8531 28.3261L63.4582 36.5602L33.486 122.483L11.8025 146.692L9.88093 114.249L39.8531 28.3261Z" fill="#AEEEE1"/>
<path d="M39.8531 28.3261L41.1705 24.5493L37.3937 23.2318L36.0763 27.0086L39.8531 28.3261ZM63.4582 36.5602L67.235 37.8777L68.5524 34.1008L64.7756 32.7834L63.4582 36.5602ZM33.486 122.483L36.4656 125.151L36.9993 124.555L37.2628 123.8L33.486 122.483ZM9.88093 114.249L6.10412 112.931L5.84063 113.686L5.88793 114.485L9.88093 114.249ZM11.8025 146.692L7.80953 146.928L8.37714 156.511L14.7821 149.36L11.8025 146.692ZM38.5356 32.1029L62.1407 40.337L64.7756 32.7834L41.1705 24.5493L38.5356 32.1029ZM59.6813 35.2427L29.7092 121.165L37.2628 123.8L67.235 37.8777L59.6813 35.2427ZM13.6577 115.566L43.6299 29.6435L36.0763 27.0086L6.10412 112.931L13.6577 115.566ZM30.5064 119.814L8.82296 144.023L14.7821 149.36L36.4656 125.151L30.5064 119.814ZM15.7955 146.455L13.8739 114.012L5.88793 114.485L7.80953 146.928L15.7955 146.455Z" fill="black" mask="url(#path-1-inside-1)"/>
<rect x="45.0351" y="19.5428" width="21" height="15" transform="rotate(19.2302 45.0351 19.5428)" fill="black" stroke="black" stroke-width="4"/>
<path d="M67.3336 19.3779L63.8753 29.292L44.047 22.3754L47.5054 12.4613C49.4153 6.98584 55.4024 4.09548 60.8778 6.00546C66.3532 7.91544 69.2436 13.9025 67.3336 19.3779Z" fill="#AEEEE1" stroke="black" stroke-width="4"/>
</svg>
